<?xml version="1.0" encoding="UTF-8"?>
<svg width="140px" height="243px" viewBox="0 0 140 243" version="1.1" xmlns="http://www.w3.org/2000/svg" xmlns:xlink="http://www.w3.org/1999/xlink">
    <title>hollow_glyph_000</title>
    <g id="hollow_glyph_000" stroke="none" stroke-width="1" fill="none" fill-rule="evenodd">
        <g transform="translate(10.386897, 46.800000)" fill="#000000" fill-rule="nonzero" id="Shape" stroke="#FFFFFF" stroke-width="6">
            <path d="M49.1131029,150 C62.7131029,150 74.1131029,145.6 82.9131029,137 C95.5131029,124.8 103.313103,104.2 106.313103,77.2 C108.113103,58.2 107.513103,38.4 99.9131029,24 C91.9131029,8.8 78.9131029,0 58.5131029,0 C43.5131029,0 31.7131029,5.4 22.1131029,15.6 C10.7131029,27.8 3.9131029,46.8 1.1131029,70.8 C-1.4868971,92.2 -0.0868970979,116.4 11.3131029,132.2 C19.5131029,143.6 31.9131029,150 49.1131029,150 Z M48.9131029,124.4 C30.1131029,124.4 27.3131029,99.2 30.3131029,72.6 C32.9131029,49.8 40.9131029,25.6 58.5131029,25.6 C76.7131029,25.6 80.1131029,50.2 77.1131029,75.4 C74.3131029,100.2 66.5131029,124.4 48.9131029,124.4 Z"></path>
        </g>
    </g>
</svg>